<?xml version="1.0" standalone="no"?>
<!DOCTYPE svg PUBLIC "-//W3C//DTD SVG 20010904//EN"
 "http://www.w3.org/TR/2001/REC-SVG-20010904/DTD/svg10.dtd">
<svg version="1.0" xmlns="http://www.w3.org/2000/svg"
 width="348.000000pt" height="348.000000pt" viewBox="0 0 348.000000 348.000000"
 preserveAspectRatio="xMidYMid meet">

<g transform="translate(0.000000,348.000000) scale(0.100000,-0.100000)"
fill="#000000" stroke="none">
<path d="M2104 3001 c-132 -33 -199 -183 -134 -301 92 -164 331 -131 381 53
37 140 -105 283 -247 248z m66 -75 c0 -8 9 -16 21 -19 13 -4 20 -12 17 -24 -2
-14 -11 -17 -35 -15 -45 5 -58 -6 -37 -29 9 -10 22 -19 29 -19 21 0 55 -41 55
-66 0 -14 -10 -35 -23 -47 -13 -12 -26 -30 -30 -39 -8 -24 -28 -23 -34 1 -3
11 -16 22 -29 25 -22 6 -32 25 -18 38 3 4 18 2 34 -2 32 -9 68 9 56 29 -4 6
-25 20 -46 31 -56 29 -66 85 -19 110 10 6 19 17 19 25 0 14 20 25 33 18 4 -2
7 -10 7 -17z"/>
<path d="M1557 2475 c-89 -33 -172 -122 -197 -210 -19 -66 -8 -169 23 -230 72
-141 231 -207 383 -159 77 24 172 114 197 188 56 164 -25 348 -178 405 -65 25
-170 27 -228 6z m133 -104 c4 -17 15 -27 38 -33 31 -8 39 -22 24 -44 -4 -6
-32 -10 -62 -10 -52 1 -55 0 -55 -24 0 -19 9 -29 42 -45 53 -25 90 -60 97 -91
9 -35 -20 -90 -55 -104 -21 -9 -29 -19 -29 -37 0 -13 -7 -26 -15 -29 -19 -8
-45 13 -45 35 0 10 -13 21 -32 26 -26 8 -33 15 -33 35 0 27 10 29 70 15 23 -5
37 -2 55 13 33 27 22 46 -49 82 -63 31 -81 52 -81 94 0 28 44 86 66 86 8 0 14
10 14 23 0 13 3 27 7 31 14 13 37 1 43 -23z"/>
<path d="M2490 2406 c-84 -18 -149 -54 -213 -117 -208 -208 -147 -556 120
-682 87 -40 218 -50 304 -22 171 55 288 205 297 380 7 138 -33 240 -133 334
-63 60 -139 98 -222 111 -70 12 -83 12 -153 -4z m118 -154 c3 -29 8 -33 48
-43 35 -9 44 -16 44 -33 0 -43 -14 -50 -64 -36 -53 14 -91 8 -106 -19 -17 -32
0 -51 77 -88 86 -41 113 -74 113 -140 0 -48 -32 -93 -79 -113 -23 -9 -31 -19
-33 -43 -3 -28 -7 -32 -35 -35 -32 -3 -33 -2 -33 31 0 33 -2 36 -39 42 -59 10
-75 24 -61 59 9 24 14 27 38 22 106 -25 152 -16 152 33 0 34 -19 52 -88 81
-71 31 -102 69 -102 127 0 38 5 50 34 79 19 19 41 34 50 34 11 0 16 9 16 28 0
59 63 73 68 14z"/>
<path d="M1440 1469 c-233 -33 -341 -53 -350 -64 -15 -18 -65 -834 -52 -847
13 -13 22 -9 85 37 83 59 90 60 361 10 441 -80 761 -125 892 -125 75 0 96 4
172 36 194 80 552 287 684 396 87 72 113 170 60 229 -41 46 -84 43 -191 -10
-206 -104 -479 -189 -667 -206 -143 -14 -426 35 -520 90 -42 24 -62 52 -47 65
4 4 67 -3 138 -16 169 -30 333 -40 405 -25 116 25 172 97 135 175 -15 31 -26
38 -79 55 -33 10 -141 44 -240 75 -329 104 -433 128 -586 131 -74 2 -164 0
-200 -6z"/>
<path d="M289 1445 c-15 -8 -30 -22 -34 -32 -6 -18 -95 -797 -95 -840 0 -51 9
-53 315 -53 289 0 326 4 340 39 4 9 21 199 38 423 l31 408 -20 21 c-19 19 -39
21 -200 29 -98 5 -217 11 -264 14 -63 4 -92 2 -111 -9z m317 -570 c33 -21 64
-73 64 -108 0 -103 -109 -169 -201 -122 -92 48 -90 192 4 239 38 19 96 16 133
-9z"/>
</g>
</svg>
