<svg width="400" height="400" viewBox="0 0 400 400" fill="none" xmlns="http://www.w3.org/2000/svg">
<path d="M200 33.3333C291.9 33.3333 366.667 108.1 366.667 200C366.667 291.9 291.9 366.667 200 366.667C108.1 366.667 33.3333 291.9 33.3333 200C33.3333 108.1 108.1 33.3333 200 33.3333ZM200 0C89.55 0 0 89.55 0 200C0 310.45 89.55 400 200 400C310.45 400 400 310.45 400 200C400 89.55 310.45 0 200 0Z" fill="black"/>
<path d="M122.667 153.255H148.825C139.702 173.227 139.702 215.79 148.825 235.755H122.667C113.708 228.138 109 211.342 109 194.54C109 177.696 113.729 160.852 122.667 153.255V153.255ZM273 194.54C273.034 249.753 251.509 282.979 231.173 276.104C225.884 274.317 165.799 237.749 165.799 237.749C152.18 222.486 152.18 167.019 165.799 151.757C165.799 151.757 228.399 114.109 231.043 113.03C249.432 105.564 272.973 139.292 273 194.54ZM249.883 141.651C242.687 126.086 229.369 126.347 222.317 141.664C218.299 150.402 215.532 163.424 214.049 174.643H217.65C228.494 174.643 237.282 183.492 237.282 194.409C237.282 205.326 228.494 214.175 217.65 214.175H214.131C215.614 225.195 218.34 238.498 222.372 247.793C229.123 263.406 243.295 263.138 249.931 247.779C263.228 217 262.039 167.968 249.883 141.651V141.651Z" fill="black"/>
<rect x="91.3159" y="58.5654" width="373" height="35" transform="rotate(46.3053 91.3159 58.5654)" fill="black"/>
</svg>
