<?xml version="1.0" standalone="no"?>
<!DOCTYPE svg PUBLIC "-//W3C//DTD SVG 20010904//EN"
 "http://www.w3.org/TR/2001/REC-SVG-20010904/DTD/svg10.dtd">
<svg version="1.0" xmlns="http://www.w3.org/2000/svg"
 width="500.000000pt" height="500.000000pt" viewBox="0 0 500.000000 500.000000"
 preserveAspectRatio="xMidYMid meet">

<g transform="translate(0.000000,500.000000) scale(0.100000,-0.100000)"
fill="#000000" stroke="none">
<path d="M2503 4150 c-27 -11 -158 -99 -223 -148 -25 -19 -58 -41 -75 -48 -16
-7 -95 -58 -175 -114 -80 -55 -212 -145 -295 -200 -296 -195 -637 -426 -703
-477 -25 -19 -55 -39 -67 -43 -17 -7 -215 -139 -388 -260 -63 -45 -97 -99 -97
-155 0 -77 53 -144 130 -165 54 -15 97 2 224 89 57 39 115 75 128 80 13 5 44
24 68 43 25 18 122 86 215 149 94 63 195 134 224 157 30 22 71 49 90 59 42 21
300 191 318 209 22 21 311 214 335 223 13 5 44 24 68 43 90 68 271 188 283
188 6 -1 46 -25 87 -55 41 -29 119 -82 173 -117 150 -97 261 -171 712 -473
525 -352 618 -414 752 -498 106 -67 109 -69 166 -65 61 5 95 23 131 72 16 21
21 42 21 91 0 81 -15 102 -126 178 -46 31 -91 64 -101 71 -29 25 -197 136
-205 136 -5 0 -58 34 -118 75 -61 41 -138 94 -172 118 l-63 42 0 362 0 363
-29 32 -29 33 -251 0 -251 0 -27 -28 c-28 -27 -28 -29 -33 -188 l-5 -161 -69
51 c-39 29 -101 71 -138 94 -38 23 -117 74 -175 112 -58 39 -125 83 -149 99
-48 31 -122 43 -161 26z m1097 -425 c0 -118 -2 -215 -5 -215 -3 0 -43 25 -90
55 l-85 55 0 160 0 160 90 0 90 0 0 -215z"/>
<path d="M2161 3325 c-64 -60 -94 -129 -94 -215 0 -90 28 -151 109 -231 77
-76 93 -117 69 -176 -9 -22 -31 -54 -50 -72 -43 -40 -46 -80 -10 -116 38 -39
71 -33 126 24 63 65 93 144 86 228 -6 78 -35 139 -102 211 -62 68 -75 91 -75
132 0 37 12 63 51 108 53 60 30 152 -36 152 -17 0 -43 -16 -74 -45z"/>
<path d="M2471 3325 c-62 -58 -95 -130 -95 -210 -1 -90 25 -148 106 -232 57
-58 71 -79 75 -112 8 -57 -1 -83 -47 -130 -48 -49 -53 -89 -15 -126 30 -31 61
-32 106 -1 92 63 128 185 98 327 -10 44 -22 63 -88 131 l-76 80 0 58 c0 54 3
60 43 103 52 57 57 103 16 136 -41 32 -69 26 -123 -24z"/>
<path d="M2799 3346 c-83 -56 -123 -178 -100 -302 13 -75 39 -118 100 -170 94
-81 96 -161 9 -246 -38 -37 -38 -88 -2 -117 15 -12 36 -21 47 -21 32 0 85 38
116 84 92 133 74 283 -47 398 -66 63 -82 90 -82 143 0 43 12 65 60 114 38 38
40 82 5 116 -30 31 -61 32 -106 1z"/>
<path d="M4000 2204 c0 -385 3 -484 13 -478 6 4 26 18 42 30 17 13 61 37 98
54 l67 32 0 351 0 352 -110 73 -110 72 0 -486z"/>
<path d="M1080 2659 c-14 -11 -58 -42 -98 -70 l-72 -50 2 -814 3 -815 33 -32
32 -33 1320 -3 c726 -1 1320 0 1320 4 0 3 -15 23 -32 44 -18 21 -42 65 -54 97
l-21 58 -1194 5 -1194 5 -3 813 c-1 446 -5 812 -10 812 -4 0 -18 -10 -32 -21z"/>
<path d="M1992 2345 c-69 -30 -107 -70 -126 -132 -15 -52 -17 -100 -14 -443
l3 -385 25 -50 c34 -67 98 -107 181 -113 62 -5 136 15 159 43 10 12 18 10 53
-13 36 -23 52 -27 118 -27 65 0 81 4 115 26 l39 26 39 -26 c34 -22 50 -26 116
-26 66 0 82 4 116 26 l39 26 37 -25 c48 -31 147 -41 198 -20 55 23 101 68 126
123 24 50 24 52 24 441 l0 390 -25 50 c-36 71 -107 117 -189 122 -52 3 -70 -1
-117 -25 l-56 -28 -52 27 c-37 19 -68 28 -101 28 -33 0 -64 -9 -101 -28 l-52
-27 -56 28 c-73 37 -155 35 -214 -4 l-37 -26 -56 29 c-65 32 -137 37 -192 13z
m146 -161 c22 -25 22 -26 22 -390 l0 -366 -30 -30 c-26 -25 -36 -29 -63 -24
-68 13 -67 7 -67 420 0 283 3 376 13 388 35 44 86 45 125 2z m310 0 c22 -25
22 -26 22 -390 l0 -366 -29 -29 c-36 -36 -70 -37 -108 -5 l-28 24 -3 361 c-2
314 -1 365 13 391 29 55 90 62 133 14z m307 5 c19 -19 20 -33 20 -395 l0 -376
-28 -24 c-35 -30 -59 -30 -94 0 l-28 24 -3 364 c-2 389 -1 400 48 425 29 15
57 9 85 -18z m290 21 c53 -20 56 -47 53 -436 l-3 -356 -28 -24 c-38 -32 -72
-31 -108 5 l-29 29 0 364 c0 392 1 397 54 418 28 12 31 12 61 0z"/>
<path d="M703 2016 c-79 -25 -198 -117 -229 -178 -13 -25 -20 -28 -62 -28 -56
0 -135 -35 -173 -77 -14 -16 -36 -53 -49 -83 -66 -152 5 -321 157 -376 27 -9
97 -13 246 -14 l207 0 0 105 0 105 -195 0 c-187 0 -195 1 -215 22 -23 25 -25
40 -9 69 16 31 55 42 89 24 37 -19 83 -19 120 0 22 12 31 25 39 65 20 94 57
139 132 162 l39 11 0 104 0 103 -27 -1 c-16 0 -47 -6 -70 -13z"/>
<path d="M4290 1737 c-121 -28 -247 -120 -300 -220 -24 -44 -24 -44 -89 -51
-100 -9 -135 -22 -190 -72 -74 -66 -105 -137 -105 -239 0 -64 5 -89 23 -123
34 -66 97 -128 160 -159 l56 -28 282 -3 c170 -2 305 1 340 7 93 17 180 66 253
141 57 58 68 76 87 141 32 105 37 172 20 249 -22 96 -40 138 -84 194 -101 131
-293 200 -453 163z m195 -233 c22 -10 59 -37 82 -60 102 -102 72 -276 -61
-359 l-49 -30 -283 -3 -282 -3 -34 30 c-28 25 -33 36 -33 74 0 82 75 128 146
92 18 -10 50 -18 72 -18 53 0 83 32 107 112 23 79 36 99 89 135 84 59 165 69
246 30z"/>
</g>
</svg>
