<?xml version="1.0" standalone="no"?>
<!DOCTYPE svg PUBLIC "-//W3C//DTD SVG 20010904//EN"
 "http://www.w3.org/TR/2001/REC-SVG-20010904/DTD/svg10.dtd">
<svg version="1.0" xmlns="http://www.w3.org/2000/svg"
 width="100.000000pt" height="100.000000pt" viewBox="0 0 100.000000 100.000000"
 preserveAspectRatio="xMidYMid meet">

<g transform="translate(0.000000,100.000000) scale(0.100000,-0.100000)"
fill="#000000" stroke="none">
<path d="M840 813 c-30 -12 -63 -49 -90 -104 -57 -112 -168 -169 -273 -140
-34 10 -51 9 -91 -3 l-48 -15 23 25 c16 18 20 27 12 35 -16 16 -107 -16 -146
-50 l-30 -28 31 -21 c108 -77 239 -107 364 -82 115 22 190 76 238 170 11 22
25 40 31 40 19 0 20 -28 3 -62 -69 -137 -217 -208 -408 -195 -67 5 -92 12
-165 48 -70 34 -103 60 -180 136 -61 62 -97 91 -104 84 -12 -12 19 -64 71
-114 37 -36 38 -40 29 -75 -17 -66 15 -164 44 -135 10 10 10 18 1 38 -15 32
-16 92 -2 100 6 3 10 0 10 -8 0 -7 7 -36 15 -64 28 -94 122 -174 239 -204 61
-15 74 -4 50 42 l-17 34 34 -28 c74 -60 73 -60 134 -47 135 28 270 131 329
252 34 69 59 189 53 256 -3 43 -10 59 -34 83 -30 30 -89 46 -123 32z"/>
</g>
</svg>
