<?xml version="1.0" standalone="no"?>
<!DOCTYPE svg PUBLIC "-//W3C//DTD SVG 20010904//EN"
 "http://www.w3.org/TR/2001/REC-SVG-20010904/DTD/svg10.dtd">
<svg version="1.0" xmlns="http://www.w3.org/2000/svg"
 width="512.000000pt" height="512.000000pt" viewBox="0 0 512.000000 512.000000"
 preserveAspectRatio="xMidYMid meet">

<g transform="translate(0.000000,512.000000) scale(0.100000,-0.100000)"
fill="#000000" stroke="none">
<path d="M2390 4961 c-98 -30 -143 -82 -190 -220 -49 -145 -113 -250 -227
-371 -53 -56 -93 -107 -93 -118 0 -27 62 -79 125 -108 224 -99 425 -20 536
210 22 44 39 86 39 94 0 8 9 16 21 19 86 23 279 141 337 207 84 96 53 122
-300 242 -153 53 -196 60 -248 45z"/>
<path d="M3345 4783 c-11 -2 -160 -93 -330 -202 l-310 -198 -46 -85 c-63 -117
-94 -155 -155 -189 l-52 -30 5 -77 c12 -168 -67 -327 -193 -393 l-46 -24 5
-59 c15 -173 -63 -335 -193 -401 l-49 -25 6 -50 c16 -140 -62 -301 -175 -359
l-38 -19 -1 -70 c-2 -125 -64 -226 -167 -273 -69 -31 -139 -25 -338 31 -277
78 -289 74 -397 -108 -87 -146 -101 -179 -101 -234 0 -66 18 -116 57 -158 31
-35 780 -650 842 -692 30 -21 79 -23 117 -6 19 9 96 116 257 358 126 190 231
347 234 349 2 3 67 13 144 23 98 12 157 25 192 41 51 24 1296 905 1349 954 44
42 71 118 71 198 -1 77 -17 125 -57 168 -24 26 -29 27 -78 21 -29 -4 -82 -15
-118 -25 -36 -10 -67 -16 -69 -13 -11 11 83 84 142 109 57 25 66 33 76 65 15
49 14 133 -1 184 -8 24 -32 61 -60 90 l-47 49 -73 -6 c-40 -3 -99 -15 -130
-26 -32 -11 -58 -17 -58 -12 0 30 148 115 224 128 34 5 41 11 59 51 51 117 24
276 -62 362 -65 65 -100 71 -273 43 -25 -3 -38 -2 -38 6 0 13 94 68 131 76 35
8 51 44 57 131 6 101 -16 163 -82 229 -66 66 -138 87 -231 68z"/>
<path d="M1490 4541 c-147 -48 -250 -238 -196 -364 26 -64 70 -91 384 -237
400 -187 406 -189 473 -190 102 0 159 64 162 181 l2 63 -85 -3 c-160 -5 -328
56 -427 155 -72 72 -71 92 6 181 l59 69 -128 72 c-132 75 -191 92 -250 73z"/>
<path d="M1230 3991 c-113 -37 -189 -139 -190 -254 0 -69 25 -125 72 -160 30
-22 547 -269 678 -324 30 -12 72 -23 93 -23 187 -1 258 268 109 413 -23 22
-151 96 -334 192 -253 133 -305 157 -350 160 -29 3 -64 1 -78 -4z"/>
<path d="M1005 3443 c-48 -25 -76 -55 -101 -108 -28 -58 -30 -111 -9 -163 32
-75 31 -75 480 -258 271 -110 331 -123 393 -84 38 24 72 89 71 140 0 76 -52
165 -118 204 -20 11 -157 81 -306 153 -249 123 -274 133 -325 133 -30 -1 -68
-8 -85 -17z"/>
<path d="M980 2919 c-111 -46 -139 -233 -44 -296 36 -23 530 -163 578 -163 30
0 45 7 72 34 29 29 34 41 34 80 0 26 -6 61 -14 79 -29 68 -72 94 -302 184
-222 87 -279 101 -324 82z"/>
<path d="M3815 2596 c-26 -12 -777 -500 -1012 -658 -94 -63 -229 -113 -338
-124 -68 -7 -69 -8 -40 -20 93 -41 317 -106 381 -111 l70 -6 94 -165 c52 -92
109 -183 128 -203 46 -51 104 -73 184 -67 60 5 88 18 553 267 270 144 500 273
513 287 15 18 22 38 22 67 0 37 -24 83 -186 357 -102 173 -197 327 -212 343
-24 25 -77 47 -112 47 -8 -1 -28 -7 -45 -14z"/>
<path d="M454 1824 c-17 -8 -43 -27 -57 -42 -32 -35 -387 -548 -387 -561 0 -5
78 -63 173 -128 738 -510 977 -674 989 -678 13 -4 368 501 395 563 29 66 5
181 -48 228 -36 32 -857 595 -898 616 -43 22 -125 23 -167 2z"/>
<path d="M4500 1823 c-42 -22 -864 -587 -899 -617 -53 -47 -77 -162 -48 -228
22 -49 382 -568 392 -565 24 5 1165 799 1164 810 -1 24 -375 551 -412 581 -49
39 -141 48 -197 19z"/>
<path d="M1708 1024 c3 -36 -2 -72 -13 -100 -9 -24 -102 -168 -207 -320 -104
-152 -186 -280 -181 -284 21 -21 219 -153 230 -154 6 -1 99 126 207 282 210
306 222 330 197 413 -19 62 -74 115 -211 202 l-25 16 3 -55z"/>
<path d="M3332 1024 c-96 -66 -137 -109 -153 -163 -25 -83 -14 -107 197 -413
108 -156 201 -283 207 -282 13 1 237 152 237 160 0 3 -82 123 -181 267 -213
307 -232 343 -227 427 1 33 3 60 2 60 0 0 -37 -25 -82 -56z"/>
</g>
</svg>
